<svg width="24" height="17" viewBox="0 0 24 17" fill="none" xmlns="http://www.w3.org/2000/svg">
<path d="M16.9691 13.7734C17.2236 14.0091 17.5233 14.1907 17.8501 14.307C18.1769 14.4234 18.5239 14.4722 18.8701 14.4504C19.4187 14.4643 19.9567 14.2974 20.4011 13.9754C20.7631 13.7404 21.0371 13.3914 21.1801 12.9854H23.7651C23.4897 14.1431 22.8174 15.1678 21.8651 15.8814C20.9509 16.4881 19.8707 16.7956 18.7741 16.7614C17.9914 16.7716 17.2147 16.6244 16.4901 16.3284C15.8343 16.0552 15.2462 15.6419 14.7671 15.1174C14.2899 14.568 13.9232 13.9317 13.6871 13.2434C13.4224 12.4738 13.2928 11.6642 13.3041 10.8504C13.2991 10.0504 13.4331 9.25538 13.7001 8.50137C14.0602 7.44112 14.7461 6.52175 15.6598 5.87452C16.5735 5.22728 17.6684 4.88529 18.7881 4.89736C19.6151 4.8802 20.4328 5.07396 21.1641 5.46036C21.8251 5.82236 22.3951 6.33036 22.8321 6.94537C23.2785 7.59032 23.5985 8.31412 23.7751 9.07838C23.9691 9.89938 24.0381 10.7444 23.9801 11.5864H16.2811C16.2181 12.3764 16.4651 13.1604 16.9691 13.7734ZM6.94703 0.930339C7.59532 0.918597 8.24267 0.985077 8.87504 1.12834C9.40774 1.2444 9.91343 1.46093 10.365 1.76634C10.783 2.06934 11.1131 2.47735 11.3231 2.94835C11.5641 3.52735 11.6801 4.15135 11.6641 4.77836C11.692 5.46757 11.516 6.1497 11.1581 6.73937C10.7822 7.29599 10.2629 7.74067 9.65504 8.02637C10.4803 8.24867 11.1991 8.75825 11.6821 9.46338C12.1461 10.2104 12.3791 11.0784 12.3521 11.9574C12.368 12.6581 12.2233 13.3532 11.9291 13.9894C11.6575 14.5451 11.2591 15.0291 10.766 15.4024C10.2593 15.7724 9.6888 16.0459 9.08304 16.2094C8.45521 16.3834 7.80651 16.4705 7.15503 16.4684H0V0.930339H6.94703ZM6.71203 13.8304C7.02003 13.8344 7.32803 13.8014 7.62804 13.7314C7.90237 13.6711 8.16248 13.5584 8.39404 13.3994C8.62204 13.2414 8.80504 13.0284 8.92804 12.7804C9.07004 12.4634 9.13604 12.1174 9.11904 11.7714C9.14998 11.4555 9.10821 11.1367 8.99693 10.8394C8.88565 10.5422 8.70781 10.2743 8.47704 10.0564C7.98746 9.69629 7.38785 9.51775 6.78103 9.55138H3.24102V13.8304H6.71203ZM20.3471 7.86337C20.1317 7.64791 19.8726 7.48116 19.5873 7.37437C19.3019 7.26759 18.997 7.22326 18.6931 7.24437C18.2895 7.22872 17.8888 7.31796 17.5301 7.50337C17.2458 7.65965 16.9951 7.87032 16.7921 8.12337C16.6113 8.36001 16.4769 8.62875 16.3961 8.91538C16.3221 9.15438 16.2761 9.40038 16.2591 9.64938H21.0281C20.9863 8.99966 20.7497 8.37761 20.3491 7.86437L20.3471 7.86337ZM6.53403 7.21537C7.0437 7.23621 7.54536 7.08356 7.95704 6.78237C8.35604 6.42736 8.56404 5.90236 8.51704 5.36936C8.53001 5.06238 8.46895 4.75679 8.33904 4.47835C8.22821 4.25714 8.05646 4.07221 7.84404 3.94535C7.6286 3.8057 7.38647 3.71239 7.13303 3.67135C6.85806 3.61759 6.57816 3.59312 6.29803 3.59835H3.24102V7.22937H6.53403V7.21537ZM21.6201 1.96834H15.6441V3.49535H21.6201V1.96834Z" fill="white"/>
</svg>
