<svg width="25" height="21" viewBox="0 0 25 21" fill="none" xmlns="http://www.w3.org/2000/svg">
<path d="M8.22917 19.2913H24.5V16.333H8.22917V19.2913ZM8.22917 1.54134V4.49967H24.5V1.54134H8.22917ZM4.53125 3.02051C4.53125 4.24452 3.53651 5.23926 2.3125 5.23926C1.08849 5.23926 0.09375 4.24452 0.09375 3.02051C0.09375 1.7965 1.08849 0.801758 2.3125 0.801758C3.53651 0.801758 4.53125 1.7965 4.53125 3.02051ZM4.53125 10.4163C4.53125 11.6404 3.53651 12.6351 2.3125 12.6351C1.08849 12.6351 0.09375 11.6404 0.09375 10.4163C0.09375 9.19233 1.08849 8.19759 2.3125 8.19759C3.53651 8.19759 4.53125 9.19233 4.53125 10.4163ZM4.53125 17.8122C4.53125 19.0362 3.53651 20.0309 2.3125 20.0309C1.08849 20.0309 0.09375 19.0362 0.09375 17.8122C0.09375 16.5882 1.08849 15.5934 2.3125 15.5934C3.53651 15.5934 4.53125 16.5882 4.53125 17.8122ZM8.22917 11.8955H24.5V8.93717H8.22917V11.8955Z" fill="#F1F1F1"/>
</svg>
