<svg width="24" height="25" viewBox="0 0 24 25" fill="none" xmlns="http://www.w3.org/2000/svg">
<path d="M20.447 21.216H16.893V15.647C16.893 14.319 16.866 12.61 15.041 12.61C13.188 12.61 12.905 14.055 12.905 15.549V21.216H9.351V9.76398H12.765V11.325H12.811C13.288 10.425 14.448 9.47499 16.181 9.47499C19.782 9.47499 20.448 11.845 20.448 14.93L20.447 21.216ZM5.337 8.19698C4.193 8.19698 3.274 7.27098 3.274 6.13198C3.274 4.99398 4.194 4.06898 5.337 4.06898C6.477 4.06898 7.401 4.99398 7.401 6.13198C7.401 7.27098 6.476 8.19698 5.337 8.19698ZM7.119 21.216H3.555V9.76398H7.119V21.216ZM22.225 0.763985H1.771C0.792 0.763985 0 1.53798 0 2.49298V23.035C0 23.991 0.792 24.764 1.771 24.764H22.222C23.2 24.764 24 23.991 24 23.035V2.49298C24 1.53798 23.2 0.763985 22.222 0.763985H22.225Z" fill="white"/>
</svg>
