<svg width="75" height="22" viewBox="0 0 75 22" fill="none" xmlns="http://www.w3.org/2000/svg">
<path d="M19.7017 2.32718C19.7017 7.56332 12.2113 18.4447 6.59328 21.2889C0.507175 23.1851 -1.36547 21.2889 0.97534 15.6004C3.23152 10.1176 14.5305 2.32718 19.7017 2.32718C19.7017 -2.90897 24.8729 2.32718 19.7017 2.32718Z" fill="#CAF08D"/>
<path d="M19.8924 2.31816C19.9577 2.26712 19.9692 2.17285 19.9182 2.10759C19.8671 2.04234 19.7729 2.03081 19.7076 2.08184L19.8924 2.31816ZM19.8 2.2C19.7076 2.08184 19.7076 2.08187 19.7075 2.08191C19.7075 2.08195 19.7074 2.08201 19.7073 2.08208C19.7071 2.08223 19.7068 2.08245 19.7064 2.08275C19.7057 2.08333 19.7046 2.0842 19.7031 2.08534C19.7002 2.08764 19.6958 2.09105 19.6901 2.09557C19.6786 2.10461 19.6615 2.11807 19.639 2.13582C19.5941 2.17131 19.5276 2.22394 19.4415 2.29266C19.2692 2.4301 19.0181 2.63186 18.7025 2.88946C18.0714 3.40464 17.1823 4.14321 16.1497 5.03712C14.0852 6.82444 11.4452 9.2348 9.14811 11.7233L9.36855 11.9267C11.6549 9.44992 14.2856 7.04778 16.3461 5.26393C17.3761 4.37224 18.263 3.63555 18.8923 3.12187C19.2069 2.86503 19.4571 2.66397 19.6286 2.52718C19.7143 2.45879 19.7804 2.40646 19.8249 2.37127C19.8472 2.35367 19.8641 2.34036 19.8754 2.33146C19.8811 2.32702 19.8854 2.32367 19.8882 2.32145C19.8896 2.32034 19.8907 2.31951 19.8914 2.31896C19.8917 2.31868 19.892 2.31848 19.8922 2.31834C19.8923 2.31828 19.8923 2.31823 19.8924 2.3182C19.8924 2.31817 19.8924 2.31816 19.8 2.2ZM9.14811 11.7233C6.85505 14.2074 5.36378 15.928 4.44527 17.0284C3.986 17.5785 3.66987 17.9737 3.46826 18.2317C3.36746 18.3607 3.29528 18.4554 3.24814 18.5181C3.22457 18.5495 3.20726 18.5728 3.19577 18.5884C3.19002 18.5962 3.18572 18.6021 3.18283 18.6061C3.18138 18.6081 3.18028 18.6096 3.17952 18.6106C3.17914 18.6111 3.17885 18.6116 3.17864 18.6118C3.17854 18.612 3.17845 18.6121 3.17839 18.6122C3.17836 18.6122 3.17833 18.6123 3.17832 18.6123C3.17829 18.6123 3.17827 18.6124 3.3 18.7C3.42173 18.7876 3.42172 18.7877 3.42172 18.7877C3.42172 18.7877 3.42172 18.7877 3.42173 18.7876C3.42176 18.7876 3.4218 18.7875 3.42186 18.7875C3.42199 18.7873 3.42221 18.787 3.42251 18.7866C3.42311 18.7857 3.42405 18.7844 3.42534 18.7827C3.42793 18.7791 3.43191 18.7737 3.43736 18.7663C3.44824 18.7515 3.46495 18.7289 3.48793 18.6984C3.53389 18.6372 3.60494 18.544 3.70465 18.4164C3.90409 18.1612 4.21817 17.7685 4.67557 17.2206C5.59038 16.1247 7.07829 14.4079 9.36855 11.9267L9.14811 11.7233Z" fill="#ABCA77"/>
<path d="M23.808 14.304C24.768 14.448 25.528 14.6 26.088 14.76C26.648 14.904 27.128 15.16 27.528 15.528C27.928 15.912 28.128 16.44 28.128 17.112C28.128 17.832 27.856 18.552 27.312 19.272C26.768 20.008 26.032 20.608 25.104 21.072C24.192 21.536 23.208 21.768 22.152 21.768C21.016 21.768 20.096 21.496 19.392 20.952C18.704 20.408 18.36 19.712 18.36 18.864C18.36 17.6 19.272 16.36 21.096 15.144C20.008 14.824 19.464 14.28 19.464 13.512C19.464 13.064 19.616 12.632 19.92 12.216C20.24 11.784 20.664 11.392 21.192 11.04C20.568 10.816 20.088 10.472 19.752 10.008C19.416 9.528 19.248 8.992 19.248 8.4C19.248 7.568 19.6 6.888 20.304 6.36C21.008 5.832 21.896 5.568 22.968 5.568C24.024 5.568 24.84 5.816 25.416 6.312C26.264 5.8 27.12 5.544 27.984 5.544C28.032 5.544 28.064 5.6 28.08 5.712C28.112 5.824 28.128 5.944 28.128 6.072C28.128 6.264 28.104 6.456 28.056 6.648C28.008 6.84 27.952 6.92 27.888 6.888C27.84 6.872 27.664 6.808 27.36 6.696C27.072 6.584 26.72 6.528 26.304 6.528C26.128 6.528 25.928 6.544 25.704 6.576C26.12 7.056 26.328 7.624 26.328 8.28C26.328 8.824 26.176 9.328 25.872 9.792C25.568 10.24 25.144 10.6 24.6 10.872C24.056 11.144 23.424 11.28 22.704 11.28C22.24 11.28 21.832 11.232 21.48 11.136C21.208 11.328 20.992 11.56 20.832 11.832C20.672 12.088 20.592 12.368 20.592 12.672C20.592 13.168 20.816 13.52 21.264 13.728C21.728 13.92 22.416 14.088 23.328 14.232L23.808 14.304ZM22.368 5.928C21.888 5.928 21.496 6.088 21.192 6.408C20.904 6.728 20.76 7.224 20.76 7.896C20.76 8.824 21 9.568 21.48 10.128C21.976 10.672 22.552 10.944 23.208 10.944C23.688 10.944 24.08 10.768 24.384 10.416C24.688 10.048 24.84 9.496 24.84 8.76C24.84 7.928 24.592 7.248 24.096 6.72C23.616 6.192 23.04 5.928 22.368 5.928ZM23.112 21.048C23.896 21.048 24.568 20.904 25.128 20.616C25.704 20.328 26.136 19.944 26.424 19.464C26.728 19 26.88 18.496 26.88 17.952C26.88 17.328 26.68 16.848 26.28 16.512C25.88 16.176 25.408 15.944 24.864 15.816C24.336 15.688 23.584 15.56 22.608 15.432C22.112 15.368 21.768 15.312 21.576 15.264C21 15.632 20.552 16.032 20.232 16.464C19.928 16.896 19.776 17.44 19.776 18.096C19.776 18.992 20.072 19.704 20.664 20.232C21.272 20.776 22.088 21.048 23.112 21.048ZM34.9176 13.656C34.9656 13.656 35.0056 13.688 35.0376 13.752C35.0856 13.8 35.0936 13.848 35.0616 13.896C33.9736 14.824 32.8056 15.288 31.5576 15.288C30.6136 15.288 29.7976 15.072 29.1096 14.64C28.4216 14.208 27.9016 13.648 27.5496 12.96C27.2136 12.256 27.0456 11.496 27.0456 10.68C27.0456 9.72 27.2696 8.848 27.7176 8.064C28.1816 7.28 28.8056 6.664 29.5896 6.216C30.3736 5.752 31.2456 5.52 32.2056 5.52C33.0696 5.52 33.7416 5.736 34.2216 6.168C34.7016 6.584 34.9416 7.16 34.9416 7.896C34.9416 8.088 34.9176 8.232 34.8696 8.328C34.8376 8.408 34.7656 8.448 34.6536 8.448L28.7496 8.496C28.6696 8.928 28.6296 9.344 28.6296 9.744C28.6296 11.136 28.9656 12.272 29.6376 13.152C30.3096 14.016 31.2376 14.448 32.4216 14.448C33.3336 14.448 34.1576 14.184 34.8936 13.656H34.9176ZM31.3896 6C30.7336 6 30.1816 6.192 29.7336 6.576C29.3016 6.944 28.9976 7.472 28.8216 8.16L33.2856 8.064C33.2856 7.408 33.1096 6.904 32.7576 6.552C32.4216 6.184 31.9656 6 31.3896 6ZM45.9384 14.712C45.9864 14.712 46.0104 14.76 46.0104 14.856C46.0104 14.952 45.9864 15 45.9384 15C45.5704 15 45.2824 14.992 45.0744 14.976L43.7784 14.952L42.4584 14.976C42.2504 14.992 41.9624 15 41.5944 15C41.5464 15 41.5224 14.952 41.5224 14.856C41.5224 14.76 41.5464 14.712 41.5944 14.712C42.0264 14.712 42.3464 14.672 42.5544 14.592C42.7624 14.496 42.8984 14.336 42.9624 14.112C43.0424 13.888 43.0824 13.536 43.0824 13.056V9.168C43.0824 8.224 42.8984 7.528 42.5304 7.08C42.1784 6.632 41.6264 6.408 40.8744 6.408C40.3784 6.408 39.8744 6.544 39.3624 6.816C38.8664 7.072 38.4104 7.432 37.9944 7.896V13.056C37.9944 13.536 38.0264 13.888 38.0904 14.112C38.1704 14.336 38.3144 14.496 38.5224 14.592C38.7304 14.672 39.0504 14.712 39.4824 14.712C39.5304 14.712 39.5544 14.76 39.5544 14.856C39.5544 14.952 39.5304 15 39.4824 15C39.1144 15 38.8264 14.992 38.6184 14.976L37.3224 14.952L36.0024 14.976C35.7944 14.992 35.5064 15 35.1384 15C35.0904 15 35.0664 14.952 35.0664 14.856C35.0664 14.76 35.0904 14.712 35.1384 14.712C35.5704 14.712 35.8904 14.672 36.0984 14.592C36.3064 14.496 36.4424 14.336 36.5064 14.112C36.5864 13.888 36.6264 13.536 36.6264 13.056V8.304C36.6264 7.76 36.5624 7.368 36.4344 7.128C36.3064 6.888 36.0904 6.768 35.7864 6.768C35.5304 6.768 35.0984 6.888 34.4904 7.128H34.4424C34.3784 7.128 34.3304 7.096 34.2984 7.032C34.2824 6.952 34.3064 6.896 34.3704 6.864L37.1544 5.544C37.1864 5.528 37.2344 5.52 37.2984 5.52C37.4424 5.52 37.5944 5.704 37.7544 6.072C37.9144 6.44 37.9944 6.912 37.9944 7.488C38.6024 6.784 39.2024 6.264 39.7944 5.928C40.4024 5.592 41.0264 5.424 41.6664 5.424C42.5624 5.424 43.2504 5.672 43.7304 6.168C44.2104 6.664 44.4504 7.392 44.4504 8.352V13.056C44.4504 13.536 44.4824 13.888 44.5464 14.112C44.6264 14.336 44.7704 14.496 44.9784 14.592C45.1864 14.672 45.5064 14.712 45.9384 14.712ZM53.2729 13.656C53.3209 13.656 53.3609 13.688 53.3929 13.752C53.4409 13.8 53.4489 13.848 53.4169 13.896C52.3289 14.824 51.1609 15.288 49.9129 15.288C48.9689 15.288 48.1529 15.072 47.4649 14.64C46.7769 14.208 46.2569 13.648 45.9049 12.96C45.5689 12.256 45.4009 11.496 45.4009 10.68C45.4009 9.72 45.6249 8.848 46.0729 8.064C46.5369 7.28 47.1609 6.664 47.9449 6.216C48.7289 5.752 49.6009 5.52 50.5609 5.52C51.4249 5.52 52.0969 5.736 52.5769 6.168C53.0569 6.584 53.2969 7.16 53.2969 7.896C53.2969 8.088 53.2729 8.232 53.2249 8.328C53.1929 8.408 53.1209 8.448 53.0089 8.448L47.1049 8.496C47.0249 8.928 46.9849 9.344 46.9849 9.744C46.9849 11.136 47.3209 12.272 47.9929 13.152C48.6649 14.016 49.5929 14.448 50.7769 14.448C51.6889 14.448 52.5129 14.184 53.2489 13.656H53.2729ZM49.7449 6C49.0889 6 48.5369 6.192 48.0889 6.576C47.6569 6.944 47.3529 7.472 47.1769 8.16L51.6409 8.064C51.6409 7.408 51.4649 6.904 51.1129 6.552C50.7769 6.184 50.3209 6 49.7449 6ZM54.8137 7.2C54.8137 7.76 54.9977 8.208 55.3657 8.544C55.7337 8.864 56.2778 9.208 56.9978 9.576C57.5577 9.864 57.9897 10.112 58.2937 10.32C58.6137 10.528 58.8858 10.8 59.1098 11.136C59.3338 11.472 59.4457 11.88 59.4457 12.36C59.4457 13.176 59.1418 13.864 58.5338 14.424C57.9258 14.984 57.1017 15.264 56.0617 15.264C55.2137 15.264 54.4457 15.024 53.7577 14.544C53.6617 14.48 53.6137 14.384 53.6137 14.256L53.5657 12.384C53.5657 12.336 53.6057 12.312 53.6857 12.312C53.7817 12.296 53.8377 12.312 53.8537 12.36C54.1577 13.16 54.5497 13.768 55.0297 14.184C55.5257 14.6 56.0937 14.808 56.7337 14.808C57.2297 14.808 57.6137 14.696 57.8858 14.472C58.1737 14.232 58.3177 13.88 58.3177 13.416C58.3177 12.968 58.2137 12.592 58.0057 12.288C57.8138 11.968 57.5738 11.72 57.2857 11.544C56.9977 11.352 56.6057 11.128 56.1098 10.872C55.5817 10.616 55.1577 10.384 54.8377 10.176C54.5337 9.968 54.2697 9.696 54.0457 9.36C53.8377 9.024 53.7337 8.608 53.7337 8.112C53.7337 7.248 54.0537 6.592 54.6937 6.144C55.3497 5.68 56.1177 5.448 56.9978 5.448C57.6377 5.448 58.2217 5.568 58.7497 5.808C58.8457 5.84 58.9018 5.88 58.9178 5.928C58.9497 5.96 58.9657 6.008 58.9657 6.072C58.9657 6.392 58.9577 6.64 58.9418 6.816L58.9178 7.824C58.9178 7.856 58.8698 7.872 58.7738 7.872C58.6777 7.872 58.6297 7.856 58.6297 7.824C58.6297 7.488 58.5017 7.176 58.2458 6.888C57.9898 6.584 57.6697 6.344 57.2857 6.168C56.9017 5.992 56.5177 5.904 56.1337 5.904C55.7177 5.904 55.3897 6.016 55.1497 6.24C54.9257 6.448 54.8137 6.768 54.8137 7.2ZM59.8751 15C59.8431 15 59.8271 14.952 59.8271 14.856C59.8271 14.76 59.8431 14.712 59.8751 14.712C60.3071 14.712 60.6271 14.672 60.8351 14.592C61.0591 14.496 61.2111 14.336 61.2911 14.112C61.3711 13.872 61.4111 13.52 61.4111 13.056V8.568C61.4111 7.992 61.3471 7.576 61.2191 7.32C61.1071 7.064 60.9071 6.936 60.6191 6.936C60.3311 6.936 59.9711 7.048 59.5391 7.272H59.5151C59.4511 7.272 59.4031 7.232 59.3711 7.152C59.3391 7.072 59.3471 7.016 59.3951 6.984L62.5151 5.544L62.6111 5.52C62.6431 5.52 62.6831 5.544 62.7311 5.592C62.7791 5.624 62.8031 5.664 62.8031 5.712C62.8031 5.824 62.7951 6.144 62.7791 6.672C62.7631 7.2 62.7551 7.824 62.7551 8.544V13.056C62.7551 13.536 62.7951 13.888 62.8751 14.112C62.9551 14.336 63.0991 14.496 63.3071 14.592C63.5151 14.672 63.8351 14.712 64.2671 14.712C64.3151 14.712 64.3391 14.76 64.3391 14.856C64.3391 14.952 64.3151 15 64.2671 15C63.8991 15 63.6031 14.992 63.3791 14.976L62.0831 14.952L60.7871 14.976C60.5631 14.992 60.2591 15 59.8751 15ZM61.8911 2.712C61.5551 2.712 61.2911 2.624 61.0991 2.448C60.9231 2.272 60.8351 2.024 60.8351 1.704C60.8351 1.384 60.9231 1.136 61.0991 0.959999C61.2911 0.783999 61.5551 0.696 61.8911 0.696C62.2111 0.696 62.4591 0.783999 62.6351 0.959999C62.8111 1.136 62.8991 1.384 62.8991 1.704C62.8991 2.024 62.8111 2.272 62.6351 2.448C62.4591 2.624 62.2111 2.712 61.8911 2.712ZM65.6456 7.2C65.6456 7.76 65.8296 8.208 66.1976 8.544C66.5656 8.864 67.1096 9.208 67.8296 9.576C68.3896 9.864 68.8216 10.112 69.1256 10.32C69.4456 10.528 69.7176 10.8 69.9416 11.136C70.1656 11.472 70.2776 11.88 70.2776 12.36C70.2776 13.176 69.9736 13.864 69.3656 14.424C68.7576 14.984 67.9336 15.264 66.8936 15.264C66.0456 15.264 65.2776 15.024 64.5896 14.544C64.4936 14.48 64.4456 14.384 64.4456 14.256L64.3976 12.384C64.3976 12.336 64.4376 12.312 64.5176 12.312C64.6136 12.296 64.6696 12.312 64.6856 12.36C64.9896 13.16 65.3816 13.768 65.8616 14.184C66.3576 14.6 66.9256 14.808 67.5656 14.808C68.0616 14.808 68.4456 14.696 68.7176 14.472C69.0056 14.232 69.1496 13.88 69.1496 13.416C69.1496 12.968 69.0456 12.592 68.8376 12.288C68.6456 11.968 68.4056 11.72 68.1176 11.544C67.8296 11.352 67.4376 11.128 66.9416 10.872C66.4136 10.616 65.9896 10.384 65.6696 10.176C65.3656 9.968 65.1016 9.696 64.8776 9.36C64.6696 9.024 64.5656 8.608 64.5656 8.112C64.5656 7.248 64.8856 6.592 65.5256 6.144C66.1816 5.68 66.9496 5.448 67.8296 5.448C68.4696 5.448 69.0536 5.568 69.5816 5.808C69.6776 5.84 69.7336 5.88 69.7496 5.928C69.7816 5.96 69.7976 6.008 69.7976 6.072C69.7976 6.392 69.7896 6.64 69.7736 6.816L69.7496 7.824C69.7496 7.856 69.7016 7.872 69.6056 7.872C69.5096 7.872 69.4616 7.856 69.4616 7.824C69.4616 7.488 69.3336 7.176 69.0776 6.888C68.8216 6.584 68.5016 6.344 68.1176 6.168C67.7336 5.992 67.3496 5.904 66.9656 5.904C66.5496 5.904 66.2216 6.016 65.9816 6.24C65.7576 6.448 65.6456 6.768 65.6456 7.2Z" fill="white"/>
</svg>
